<svg width="142" height="142" viewBox="0 0 142 142" fill="none" xmlns="http://www.w3.org/2000/svg">
<g opacity="0.5">
<rect width="7.1681" height="7.1681" rx="3.58405" transform="matrix(1 0 0 -1 0 7.16809)" fill="#8492A6"/>
<rect width="7.1681" height="7.1681" rx="3.58405" transform="matrix(1 0 0 -1 22.4721 7.16809)" fill="#8492A6"/>
<rect width="7.1681" height="7.1681" rx="3.58405" transform="matrix(1 0 0 -1 44.9441 7.16809)" fill="#8492A6"/>
<rect width="7.1681" height="7.1681" rx="3.58405" transform="matrix(1 0 0 -1 67.4159 7.16809)" fill="#8492A6"/>
<rect width="7.1681" height="7.1681" rx="3.58405" transform="matrix(1 0 0 -1 89.888 7.16809)" fill="#8492A6"/>
<rect width="7.1681" height="7.1681" rx="3.58405" transform="matrix(1 0 0 -1 112.36 7.16809)" fill="#8492A6"/>
<rect width="7.1681" height="7.1681" rx="3.58405" transform="matrix(1 0 0 -1 134.832 7.16809)" fill="#8492A6"/>
<rect width="7.1681" height="7.1681" rx="3.58405" transform="matrix(1 0 0 -1 0 29.6401)" fill="#8492A6"/>
<rect width="7.1681" height="7.1681" rx="3.58405" transform="matrix(1 0 0 -1 22 29.1681)" fill="#8492A6"/>
<rect width="7.1681" height="7.1681" rx="3.58405" transform="matrix(1 0 0 -1 44.9441 29.6401)" fill="#8492A6"/>
<rect width="7.1681" height="7.1681" rx="3.58405" transform="matrix(1 0 0 -1 67.4159 29.6401)" fill="#8492A6"/>
<rect width="7.1681" height="7.1681" rx="3.58405" transform="matrix(1 0 0 -1 89.888 29.6401)" fill="#8492A6"/>
<rect width="7.1681" height="7.1681" rx="3.58405" transform="matrix(1 0 0 -1 112.36 29.6401)" fill="#8492A6"/>
<rect width="7.1681" height="7.1681" rx="3.58405" transform="matrix(1 0 0 -1 134.832 29.6401)" fill="#8492A6"/>
<rect width="7.1681" height="7.1681" rx="3.58405" transform="matrix(1 0 0 -1 0 52.1121)" fill="#8492A6"/>
<rect width="7.1681" height="7.1681" rx="3.58405" transform="matrix(1 0 0 -1 22.4721 52.1121)" fill="#8492A6"/>
<rect width="7.1681" height="7.1681" rx="3.58405" transform="matrix(1 0 0 -1 44.9441 52.1121)" fill="#8492A6"/>
<rect width="7.1681" height="7.1681" rx="3.58405" transform="matrix(1 0 0 -1 67.4159 52.1121)" fill="#8492A6"/>
<rect width="7.1681" height="7.1681" rx="3.58405" transform="matrix(1 0 0 -1 89.888 52.1121)" fill="#8492A6"/>
<rect width="7.1681" height="7.1681" rx="3.58405" transform="matrix(1 0 0 -1 112.36 52.1121)" fill="#8492A6"/>
<rect width="7.1681" height="7.1681" rx="3.58405" transform="matrix(1 0 0 -1 134.832 52.1121)" fill="#8492A6"/>
<rect width="7.1681" height="7.1681" rx="3.58405" transform="matrix(1 0 0 -1 0 74.584)" fill="#8492A6"/>
<rect width="7.1681" height="7.1681" rx="3.58405" transform="matrix(1 0 0 -1 22.4721 74.584)" fill="#8492A6"/>
<rect width="7.1681" height="7.1681" rx="3.58405" transform="matrix(1 0 0 -1 44.9441 74.584)" fill="#8492A6"/>
<rect width="7.1681" height="7.1681" rx="3.58405" transform="matrix(1 0 0 -1 67.4159 74.584)" fill="#8492A6"/>
<rect width="7.1681" height="7.1681" rx="3.58405" transform="matrix(1 0 0 -1 89.888 74.584)" fill="#8492A6"/>
<rect width="7.1681" height="7.1681" rx="3.58405" transform="matrix(1 0 0 -1 112.36 74.584)" fill="#8492A6"/>
<rect width="7.1681" height="7.1681" rx="3.58405" transform="matrix(1 0 0 -1 134.832 74.584)" fill="#8492A6"/>
<rect width="7.1681" height="7.1681" rx="3.58405" transform="matrix(1 0 0 -1 0 97.056)" fill="#8492A6"/>
<rect width="7.1681" height="7.1681" rx="3.58405" transform="matrix(1 0 0 -1 22.4721 97.056)" fill="#8492A6"/>
<rect width="7.1681" height="7.1681" rx="3.58405" transform="matrix(1 0 0 -1 44.9441 97.056)" fill="#8492A6"/>
<rect width="7.1681" height="7.1681" rx="3.58405" transform="matrix(1 0 0 -1 67.4159 97.056)" fill="#8492A6"/>
<rect width="7.1681" height="7.1681" rx="3.58405" transform="matrix(1 0 0 -1 89.888 97.056)" fill="#8492A6"/>
<rect width="7.1681" height="7.1681" rx="3.58405" transform="matrix(1 0 0 -1 112.36 97.056)" fill="#8492A6"/>
<rect width="7.1681" height="7.1681" rx="3.58405" transform="matrix(1 0 0 -1 134.832 97.056)" fill="#8492A6"/>
<rect width="7.1681" height="7.1681" rx="3.58405" transform="matrix(1 0 0 -1 0 119.528)" fill="#8492A6"/>
<rect width="7.1681" height="7.1681" rx="3.58405" transform="matrix(1 0 0 -1 22.4721 119.528)" fill="#8492A6"/>
<rect width="7.1681" height="7.1681" rx="3.58405" transform="matrix(1 0 0 -1 44.9441 119.528)" fill="#8492A6"/>
<rect width="7.1681" height="7.1681" rx="3.58405" transform="matrix(1 0 0 -1 67.4159 119.528)" fill="#8492A6"/>
<rect width="7.1681" height="7.1681" rx="3.58405" transform="matrix(1 0 0 -1 89.888 119.528)" fill="#8492A6"/>
<rect width="7.1681" height="7.1681" rx="3.58405" transform="matrix(1 0 0 -1 112.36 119.528)" fill="#8492A6"/>
<rect width="7.1681" height="7.1681" rx="3.58405" transform="matrix(1 0 0 -1 134.832 119.528)" fill="#8492A6"/>
<rect width="7.1681" height="7.1681" rx="3.58405" transform="matrix(1 0 0 -1 0 142)" fill="#8492A6"/>
<rect width="7.1681" height="7.1681" rx="3.58405" transform="matrix(1 0 0 -1 22.4721 142)" fill="#8492A6"/>
<rect width="7.1681" height="7.1681" rx="3.58405" transform="matrix(1 0 0 -1 44.9441 142)" fill="#8492A6"/>
<rect width="7.1681" height="7.1681" rx="3.58405" transform="matrix(1 0 0 -1 67.4159 142)" fill="#8492A6"/>
<rect width="7.1681" height="7.1681" rx="3.58405" transform="matrix(1 0 0 -1 89.888 142)" fill="#8492A6"/>
<rect width="7.1681" height="7.1681" rx="3.58405" transform="matrix(1 0 0 -1 112.36 142)" fill="#8492A6"/>
<rect width="7.1681" height="7.1681" rx="3.58405" transform="matrix(1 0 0 -1 134.832 142)" fill="#8492A6"/>
</g>
</svg>
